<svg width="822" height="257" viewBox="0 0 822 257" fill="none" xmlns="http://www.w3.org/2000/svg">
<mask id="mask0_105_3" style="mask-type:luminance" maskUnits="userSpaceOnUse" x="0" y="190" width="64" height="65">
<path d="M0 190.849H64V254.849H0V190.849Z" fill="white"/>
</mask>
<g mask="url(#mask0_105_3)">
<mask id="mask1_105_3" style="mask-type:luminance" maskUnits="userSpaceOnUse" x="0" y="168" width="87" height="87">
<path d="M41.0837 168.76L86.9014 214.578L46.8128 254.667L0.995117 208.849L41.0837 168.76Z" fill="white"/>
</mask>
<g mask="url(#mask1_105_3)">
<mask id="mask2_105_3" style="mask-type:luminance" maskUnits="userSpaceOnUse" x="0" y="191" width="64" height="64">
<path d="M63.9899 191.672L46.8128 254.667L0.995117 208.849L63.9899 191.672Z" fill="white"/>
</mask>
<g mask="url(#mask2_105_3)">
<path d="M41.0837 168.76L86.9014 214.578L46.8128 254.667L0.995117 208.849L41.0837 168.76Z" fill="#10B981"/>
</g>
</g>
</g>
<mask id="mask3_105_3" style="mask-type:luminance" maskUnits="userSpaceOnUse" x="0" y="190" width="66" height="67">
<path d="M0 190.849H65.3333V256.182H0V190.849Z" fill="white"/>
</mask>
<g mask="url(#mask3_105_3)">
<mask id="mask4_105_3" style="mask-type:luminance" maskUnits="userSpaceOnUse" x="0" y="168" width="88" height="88">
<path d="M41.0837 168.76L87.0472 214.724L46.7399 255.031L0.776367 209.068L41.0837 168.76Z" fill="white"/>
</mask>
<g mask="url(#mask4_105_3)">
<mask id="mask5_105_3" style="mask-type:luminance" maskUnits="userSpaceOnUse" x="0" y="168" width="88" height="88">
<path d="M41.0833 168.766L87.0417 214.724L46.7396 255.026L0.78125 209.068L41.0833 168.766Z" fill="white"/>
</mask>
<g mask="url(#mask5_105_3)">
<mask id="mask6_105_3" style="mask-type:luminance" maskUnits="userSpaceOnUse" x="0" y="191" width="65" height="65">
<path d="M64.0625 191.745L46.7396 255.026L0.78125 209.068L64.0625 191.745Z" fill="white"/>
</mask>
<g mask="url(#mask6_105_3)">
<path d="M64.0622 191.745L46.7392 255.026L0.780894 209.068L64.0622 191.745Z" stroke="#10B981" stroke-width="14.0622"/>
</g>
</g>
</g>
</g>
<path d="M306.642 175.827V117.312C306.642 116.619 305.949 115.754 304.736 115.754H282.059C281.017 115.754 280.152 116.619 280.152 117.312V175.827H306.642ZM383.678 115.754H361.001C359.96 115.754 359.095 116.619 359.095 117.312V202.489H306.642V202.312H280.152V252.692C280.152 253.385 281.017 254.249 282.059 254.249H304.736C305.949 254.249 306.642 253.385 306.642 252.692V228.28H359.095V252.692C359.095 253.385 359.96 254.249 361.001 254.249H383.678C384.892 254.249 385.585 253.385 385.585 252.692V117.312C385.585 116.619 384.892 115.754 383.678 115.754Z" fill="black"/>
<path d="M499.661 252.171L447.031 116.791C446.515 115.405 444.088 115.405 443.573 116.791L391.114 252.171C390.599 253.213 391.286 254.249 392.849 254.249H416.562C417.255 254.249 418.125 253.905 418.297 253.213L445.302 175.999L472.656 253.213C472.828 253.905 473.693 254.249 474.213 254.249H498.104C499.318 254.249 500.182 253.213 499.661 252.171Z" fill="black"/>
<path d="M584.309 228.801C567.517 229.494 531.856 227.76 531.856 184.999C531.856 152.109 554.189 139.473 584.309 141.03V171.671H610.799V117.312C610.799 116.619 610.106 115.754 608.892 115.754H586.387C552.455 115.754 505.194 123.546 505.194 184.999C505.194 244.208 551.939 254.249 586.387 254.249H608.892C610.106 254.249 610.799 253.385 610.799 252.692V228.801H584.309Z" fill="black"/>
<path d="M726.611 251.65L671.038 186.213L726.09 118.348C727.299 117.14 726.434 115.754 724.533 115.754H696.314C695.965 115.754 694.929 116.098 694.757 116.27L642.648 180.327V117.312C642.648 116.619 641.955 115.754 640.913 115.754H618.064C617.023 115.754 616.158 116.619 616.158 117.312V245.765C616.158 245.765 649.919 207.504 653.377 203.869L693.715 253.728C693.887 253.905 694.929 254.249 695.273 254.249H725.049C726.783 254.249 727.648 253.036 726.611 251.65Z" fill="black"/>
<path d="M796.197 177.385C786.327 172.708 776.634 172.708 775.77 172.708C766.936 172.708 758.457 167.515 758.457 157.473C758.457 146.395 766.243 140.681 775.77 140.681C784.77 140.681 792.384 145.359 792.733 155.223C792.733 155.744 793.598 156.609 794.639 156.609H816.275C817.488 156.609 818.353 155.744 818.181 155.223C817.837 131.681 799.483 115.754 775.77 115.754C753.608 115.754 732.66 131.51 732.66 157.473C732.66 173.577 740.796 185.869 755.165 192.447C765.207 197.119 774.556 197.119 775.77 197.119C783.556 197.468 793.077 203.697 793.077 213.911C793.077 223.088 784.941 229.322 775.77 229.322C775.77 229.322 775.77 229.322 775.592 229.322V254.249C775.77 254.249 775.77 254.249 775.77 254.249C797.926 254.249 818.702 239.879 818.702 213.911C818.702 197.64 810.738 184.135 796.197 177.385Z" fill="black"/>
<path d="M341.345 101.323C335.746 88.8957 329.7 76.5728 324.101 63.9165C333.059 60.6665 340.564 53.4998 340.564 39.8384C340.564 13.4061 315.361 13.1821 310.325 13.1821H281.314C280.757 13.1821 280.194 13.7394 280.194 14.1873V29.4217H310.325C313.012 29.4217 323.538 29.979 323.538 39.8384C323.538 49.6925 314.017 50.1405 310.325 50.1405H280.194V101.771C280.194 102.219 280.757 102.781 281.314 102.781H295.986C296.658 102.781 297.22 102.219 297.22 101.771V66.604H306.851L323.205 102.109C323.314 102.443 323.986 102.781 324.325 102.781H340.34C341.236 102.781 341.684 102.109 341.345 101.323Z" fill="#10B981"/>
<path d="M387.156 86.0936H361.729V65.9321H396.896C397.568 65.9321 398.13 65.3748 398.13 64.9269V50.703C398.13 50.1405 397.568 49.6925 396.896 49.6925H361.729V29.4217H387.156V13.1821H345.828C345.156 13.1821 344.594 13.7394 344.594 14.1873V101.771C344.594 102.219 345.156 102.781 345.828 102.781H387.156V86.0936Z" fill="#10B981"/>
<path d="M452.001 86.3176C441.136 86.7655 418.068 85.6457 418.068 57.979C418.068 36.703 432.516 28.5259 452.001 29.5311V49.3592H469.136V14.1873C469.136 13.7394 468.688 13.1821 467.907 13.1821H453.344C431.396 13.1821 400.818 18.2186 400.818 57.979C400.818 96.2863 431.058 102.781 453.344 102.781H467.907C468.688 102.781 469.136 102.219 469.136 101.771V86.3176H452.001Z" fill="#10B981"/>
<path d="M533.761 101.323C528.162 88.8957 522.116 76.5728 516.517 63.9165C525.475 60.6665 532.98 53.4998 532.98 39.8384C532.98 13.4061 507.777 13.1821 502.741 13.1821H473.73C473.173 13.1821 472.61 13.7394 472.61 14.1873V29.4217H502.741C505.428 29.4217 515.954 29.979 515.954 39.8384C515.954 49.6925 506.433 50.1405 502.741 50.1405H472.61V101.771C472.61 102.219 473.173 102.781 473.73 102.781H488.402C489.074 102.781 489.636 102.219 489.636 101.771V66.604H499.267L515.621 102.109C515.73 102.443 516.402 102.781 516.741 102.781H532.756C533.652 102.781 534.1 102.109 533.761 101.323Z" fill="#10B981"/>
<path d="M603.088 13.1821H588.531C587.744 13.1821 587.296 13.7394 587.296 14.1873V72.8748C587.296 81.9478 579.01 86.3176 570.609 86.3176C562.322 86.3176 554.932 81.6144 553.921 72.7655V29.4217H537.01V72.8748C537.01 91.3592 552.13 102.781 570.609 102.781C589.65 102.781 604.208 91.8071 604.208 72.8748V14.1873C604.208 13.7394 603.65 13.1821 603.088 13.1821Z" fill="#10B981"/>
<path d="M644.081 87.4373H635.122V13.1821H617.987V87.4373H608.805C608.133 87.4373 607.57 87.8853 607.57 88.4426V101.771C607.57 102.219 608.133 102.781 608.805 102.781H644.081C644.867 102.781 645.315 102.219 645.315 101.771V88.4426C645.315 87.8853 644.867 87.4373 644.081 87.4373Z" fill="#10B981"/>
<path d="M665.697 45.6613V101.771C665.697 102.219 666.145 102.781 666.931 102.781H681.379C682.16 102.781 682.723 102.219 682.723 101.771V45.6613H665.697ZM648.452 28.5259H699.858C700.64 28.5259 701.088 28.078 701.088 27.5155V14.1873C701.088 13.7394 700.64 13.1821 699.858 13.1821H648.452C647.78 13.1821 647.218 13.7394 647.218 14.1873V27.5155C647.218 28.078 647.78 28.5259 648.452 28.5259Z" fill="#10B981"/>
<path d="M746.341 86.0936H720.914V65.9321H756.08C756.752 65.9321 757.315 65.3748 757.315 64.9269V50.703C757.315 50.1405 756.752 49.6925 756.08 49.6925H720.914V29.4217H746.341V13.1821H705.013C704.341 13.1821 703.778 13.7394 703.778 14.1873V101.771C703.778 102.219 704.341 102.781 705.013 102.781H746.341V86.0936Z" fill="#10B981"/>
<path d="M821.153 101.323C815.554 88.8957 809.507 76.5728 803.908 63.9165C812.867 60.6665 820.372 53.4998 820.372 39.8384C820.372 13.4061 795.169 13.1821 790.132 13.1821H761.122C760.564 13.1821 760.002 13.7394 760.002 14.1873V29.4217H790.132C792.82 29.4217 803.346 29.979 803.346 39.8384C803.346 49.6925 793.825 50.1405 790.132 50.1405H760.002V101.771C760.002 102.219 760.564 102.781 761.122 102.781H775.794C776.465 102.781 777.028 102.219 777.028 101.771V66.604H786.658L803.012 102.109C803.122 102.443 803.794 102.781 804.132 102.781H820.148C821.044 102.781 821.492 102.109 821.153 101.323Z" fill="#10B981"/>
<path d="M336.966 3.66659V0.770752H339.737V3.66659H336.966Z" fill="black"/>
<path d="M392.997 3.66659V0.770752H395.768V3.66659H392.997Z" fill="black"/>
<mask id="mask7_105_3" style="mask-type:luminance" maskUnits="userSpaceOnUse" x="42" y="148" width="66" height="65">
<path d="M42.667 148.182H108V212.182H42.667V148.182Z" fill="white"/>
</mask>
<g mask="url(#mask7_105_3)">
<mask id="mask8_105_3" style="mask-type:luminance" maskUnits="userSpaceOnUse" x="43" y="125" width="87" height="87">
<path d="M84.0368 125.807L129.849 171.625L89.7607 211.714L43.9482 165.896L84.0368 125.807Z" fill="white"/>
</mask>
<g mask="url(#mask8_105_3)">
<mask id="mask9_105_3" style="mask-type:luminance" maskUnits="userSpaceOnUse" x="43" y="148" width="64" height="64">
<path d="M106.943 148.719L89.7607 211.714L43.9482 165.896L106.943 148.719Z" fill="white"/>
</mask>
<g mask="url(#mask9_105_3)">
<path d="M84.0368 125.807L129.849 171.625L89.7607 211.713L43.9482 165.896L84.0368 125.807Z" fill="#10B981"/>
</g>
</g>
</g>
<mask id="mask10_105_3" style="mask-type:luminance" maskUnits="userSpaceOnUse" x="42" y="148" width="66" height="65">
<path d="M42.667 148.182H108V212.182H42.667V148.182Z" fill="white"/>
</mask>
<g mask="url(#mask10_105_3)">
<mask id="mask11_105_3" style="mask-type:luminance" maskUnits="userSpaceOnUse" x="43" y="125" width="87" height="88">
<path d="M84.0368 125.807L129.995 171.771L89.693 212.078L43.7295 166.115L84.0368 125.807Z" fill="white"/>
</mask>
<g mask="url(#mask11_105_3)">
<mask id="mask12_105_3" style="mask-type:luminance" maskUnits="userSpaceOnUse" x="43" y="125" width="87" height="88">
<path d="M84.0316 125.812L129.995 171.771L89.693 212.073L43.7295 166.115L84.0316 125.812Z" fill="white"/>
</mask>
<g mask="url(#mask12_105_3)">
<mask id="mask13_105_3" style="mask-type:luminance" maskUnits="userSpaceOnUse" x="43" y="148" width="65" height="65">
<path d="M107.016 148.792L89.693 212.073L43.7295 166.114L107.016 148.792Z" fill="white"/>
</mask>
<g mask="url(#mask13_105_3)">
<path d="M107.016 148.792L89.693 212.073L43.7295 166.115L107.016 148.792Z" stroke="#10B981" stroke-width="14.0622"/>
</g>
</g>
</g>
</g>
<mask id="mask14_105_3" style="mask-type:luminance" maskUnits="userSpaceOnUse" x="86" y="105" width="65" height="65">
<path d="M86.667 105.516H150.667V169.516H86.667V105.516Z" fill="white"/>
</mask>
<g mask="url(#mask14_105_3)">
<mask id="mask15_105_3" style="mask-type:luminance" maskUnits="userSpaceOnUse" x="86" y="82" width="87" height="87">
<path d="M126.99 82.8596L172.802 128.672L132.714 168.761L86.9014 122.948L126.99 82.8596Z" fill="white"/>
</mask>
<g mask="url(#mask15_105_3)">
<mask id="mask16_105_3" style="mask-type:luminance" maskUnits="userSpaceOnUse" x="86" y="105" width="64" height="64">
<path d="M149.896 105.766L132.714 168.761L86.9014 122.948L149.896 105.766Z" fill="white"/>
</mask>
<g mask="url(#mask16_105_3)">
<path d="M126.99 82.8596L172.802 128.672L132.714 168.761L86.9014 122.948L126.99 82.8596Z" fill="#10B981"/>
</g>
</g>
</g>
<mask id="mask17_105_3" style="mask-type:luminance" maskUnits="userSpaceOnUse" x="86" y="105" width="65" height="65">
<path d="M86.667 105.516H150.667V169.516H86.667V105.516Z" fill="white"/>
</mask>
<g mask="url(#mask17_105_3)">
<mask id="mask18_105_3" style="mask-type:luminance" maskUnits="userSpaceOnUse" x="86" y="82" width="87" height="88">
<path d="M126.99 82.8596L172.948 128.818L132.646 169.125L86.6826 123.162L126.99 82.8596Z" fill="white"/>
</mask>
<g mask="url(#mask18_105_3)">
<mask id="mask19_105_3" style="mask-type:luminance" maskUnits="userSpaceOnUse" x="86" y="82" width="87" height="88">
<path d="M126.985 82.8596L172.948 128.823L132.646 169.125L86.6826 123.162L126.985 82.8596Z" fill="white"/>
</mask>
<g mask="url(#mask19_105_3)">
<mask id="mask20_105_3" style="mask-type:luminance" maskUnits="userSpaceOnUse" x="86" y="105" width="64" height="65">
<path d="M149.969 105.839L132.646 169.125L86.6826 123.162L149.969 105.839Z" fill="white"/>
</mask>
<g mask="url(#mask20_105_3)">
<path d="M149.969 105.839L132.646 169.125L86.6826 123.162L149.969 105.839Z" stroke="#10B981" stroke-width="14.0622"/>
</g>
</g>
</g>
</g>
<mask id="mask21_105_3" style="mask-type:luminance" maskUnits="userSpaceOnUse" x="129" y="61" width="65" height="66">
<path d="M129.333 61.5159H193.333V126.849H129.333V61.5159Z" fill="white"/>
</mask>
<g mask="url(#mask21_105_3)">
<mask id="mask22_105_3" style="mask-type:luminance" maskUnits="userSpaceOnUse" x="129" y="39" width="87" height="87">
<path d="M169.937 39.9065L215.755 85.719L175.666 125.808L129.849 79.995L169.937 39.9065Z" fill="white"/>
</mask>
<g mask="url(#mask22_105_3)">
<mask id="mask23_105_3" style="mask-type:luminance" maskUnits="userSpaceOnUse" x="129" y="62" width="64" height="64">
<path d="M192.849 62.8127L175.666 125.808L129.849 79.995L192.849 62.8127Z" fill="white"/>
</mask>
<g mask="url(#mask23_105_3)">
<path d="M169.937 39.9065L215.755 85.719L175.666 125.808L129.849 79.995L169.937 39.9065Z" fill="#10B981"/>
</g>
</g>
</g>
<mask id="mask24_105_3" style="mask-type:luminance" maskUnits="userSpaceOnUse" x="129" y="62" width="65" height="65">
<path d="M129.333 62.8491H193.333V126.849H129.333V62.8491Z" fill="white"/>
</mask>
<g mask="url(#mask24_105_3)">
<mask id="mask25_105_3" style="mask-type:luminance" maskUnits="userSpaceOnUse" x="129" y="39" width="87" height="88">
<path d="M169.937 39.9065L215.9 85.87L175.593 126.172L129.635 80.2086L169.937 39.9065Z" fill="white"/>
</mask>
<g mask="url(#mask25_105_3)">
<mask id="mask26_105_3" style="mask-type:luminance" maskUnits="userSpaceOnUse" x="129" y="39" width="87" height="88">
<path d="M169.937 39.9065L215.9 85.87L175.598 126.172L129.635 80.2086L169.937 39.9065Z" fill="white"/>
</mask>
<g mask="url(#mask26_105_3)">
<mask id="mask27_105_3" style="mask-type:luminance" maskUnits="userSpaceOnUse" x="129" y="62" width="64" height="65">
<path d="M192.916 62.8909L175.598 126.172L129.635 80.2086L192.916 62.8909Z" fill="white"/>
</mask>
<g mask="url(#mask27_105_3)">
<path d="M192.916 62.891L175.599 126.172L129.635 80.2087L192.916 62.891Z" stroke="#10B981" stroke-width="14.0622"/>
</g>
</g>
</g>
</g>
<mask id="mask28_105_3" style="mask-type:luminance" maskUnits="userSpaceOnUse" x="172" y="18" width="64" height="67">
<path d="M172 18.8491H236V84.1825H172V18.8491Z" fill="white"/>
</mask>
<g mask="url(#mask28_105_3)">
<mask id="mask29_105_3" style="mask-type:luminance" maskUnits="userSpaceOnUse" x="172" y="-4" width="87" height="87">
<path d="M212.89 -3.04663L258.708 42.7711L218.619 82.8596L172.802 37.0419L212.89 -3.04663Z" fill="white"/>
</mask>
<g mask="url(#mask29_105_3)">
<mask id="mask30_105_3" style="mask-type:luminance" maskUnits="userSpaceOnUse" x="172" y="19" width="64" height="64">
<path d="M235.797 19.8596L218.619 82.8596L172.802 37.0419L235.797 19.8596Z" fill="white"/>
</mask>
<g mask="url(#mask30_105_3)">
<path d="M212.89 -3.04663L258.708 42.7711L218.619 82.8596L172.802 37.0419L212.89 -3.04663Z" fill="#10B981"/>
</g>
</g>
</g>
<mask id="mask31_105_3" style="mask-type:luminance" maskUnits="userSpaceOnUse" x="172" y="18" width="64" height="67">
<path d="M172 18.8491H236V84.1825H172V18.8491Z" fill="white"/>
</mask>
<g mask="url(#mask31_105_3)">
<mask id="mask32_105_3" style="mask-type:luminance" maskUnits="userSpaceOnUse" x="172" y="-4" width="87" height="88">
<path d="M212.89 -3.04663L258.854 42.9169L218.547 83.219L172.583 37.2607L212.89 -3.04663Z" fill="white"/>
</mask>
<g mask="url(#mask32_105_3)">
<mask id="mask33_105_3" style="mask-type:luminance" maskUnits="userSpaceOnUse" x="172" y="-4" width="87" height="88">
<path d="M212.89 -3.04663L258.848 42.9169L218.546 83.219L172.588 37.2555L212.89 -3.04663Z" fill="white"/>
</mask>
<g mask="url(#mask33_105_3)">
<mask id="mask34_105_3" style="mask-type:luminance" maskUnits="userSpaceOnUse" x="172" y="19" width="64" height="65">
<path d="M235.869 19.9377L218.546 83.219L172.588 37.2555L235.869 19.9377Z" fill="white"/>
</mask>
<g mask="url(#mask34_105_3)">
<path d="M235.869 19.9378L218.546 83.2191L172.587 37.2556L235.869 19.9378Z" stroke="#10B981" stroke-width="14.0622"/>
</g>
</g>
</g>
</g>
</svg>
