<svg width="822" height="244" viewBox="0 0 822 244" fill="none" xmlns="http://www.w3.org/2000/svg">
<path d="M306.642 162.827V104.312C306.642 103.619 305.949 102.754 304.736 102.754H282.059C281.017 102.754 280.152 103.619 280.152 104.312V162.827H306.642ZM383.678 102.754H361.001C359.96 102.754 359.095 103.619 359.095 104.312V189.489H306.642V189.312H280.152V239.692C280.152 240.385 281.017 241.249 282.059 241.249H304.736C305.949 241.249 306.642 240.385 306.642 239.692V215.28H359.095V239.692C359.095 240.385 359.96 241.249 361.001 241.249H383.678C384.892 241.249 385.585 240.385 385.585 239.692V104.312C385.585 103.619 384.892 102.754 383.678 102.754Z" fill="white"/>
<path d="M499.661 239.171L447.031 103.791C446.515 102.405 444.088 102.405 443.573 103.791L391.114 239.171C390.599 240.213 391.286 241.249 392.849 241.249H416.562C417.255 241.249 418.125 240.905 418.297 240.213L445.302 162.999L472.656 240.213C472.828 240.905 473.693 241.249 474.213 241.249H498.104C499.318 241.249 500.182 240.213 499.661 239.171Z" fill="white"/>
<path d="M584.309 215.801C567.517 216.494 531.856 214.76 531.856 171.999C531.856 139.109 554.189 126.473 584.309 128.03V158.671H610.799V104.312C610.799 103.619 610.106 102.754 608.892 102.754H586.387C552.455 102.754 505.194 110.546 505.194 171.999C505.194 231.208 551.939 241.249 586.387 241.249H608.892C610.106 241.249 610.799 240.385 610.799 239.692V215.801H584.309Z" fill="white"/>
<path d="M726.611 238.65L671.038 173.213L726.09 105.348C727.299 104.14 726.434 102.754 724.533 102.754H696.314C695.965 102.754 694.929 103.098 694.757 103.27L642.648 167.327V104.312C642.648 103.619 641.955 102.754 640.913 102.754H618.064C617.023 102.754 616.158 103.619 616.158 104.312V232.765C616.158 232.765 649.919 194.504 653.377 190.869L693.715 240.728C693.887 240.905 694.929 241.249 695.273 241.249H725.049C726.783 241.249 727.648 240.036 726.611 238.65Z" fill="white"/>
<path d="M796.197 164.385C786.327 159.708 776.634 159.708 775.77 159.708C766.936 159.708 758.457 154.515 758.457 144.473C758.457 133.395 766.243 127.681 775.77 127.681C784.77 127.681 792.384 132.359 792.733 142.223C792.733 142.744 793.598 143.609 794.639 143.609H816.275C817.488 143.609 818.353 142.744 818.181 142.223C817.837 118.681 799.483 102.754 775.77 102.754C753.608 102.754 732.66 118.51 732.66 144.473C732.66 160.577 740.796 172.869 755.165 179.447C765.207 184.119 774.556 184.119 775.77 184.119C783.556 184.468 793.077 190.697 793.077 200.911C793.077 210.088 784.941 216.322 775.77 216.322C775.77 216.322 775.77 216.322 775.592 216.322V241.249C775.77 241.249 775.77 241.249 775.77 241.249C797.926 241.249 818.702 226.879 818.702 200.911C818.702 184.64 810.738 171.135 796.197 164.385Z" fill="white"/>
<path d="M341.345 88.3228C335.746 75.8957 329.7 63.5728 324.101 50.9165C333.059 47.6665 340.564 40.4998 340.564 26.8384C340.564 0.406087 315.361 0.182129 310.325 0.182129H281.314C280.757 0.182129 280.194 0.73942 280.194 1.18734V16.4217H310.325C313.012 16.4217 323.538 16.979 323.538 26.8384C323.538 36.6925 314.017 37.1405 310.325 37.1405H280.194V88.7707C280.194 89.2186 280.757 89.7811 281.314 89.7811H295.986C296.658 89.7811 297.22 89.2186 297.22 88.7707V53.604H306.851L323.205 89.1092C323.314 89.4425 323.986 89.7811 324.325 89.7811H340.34C341.236 89.7811 341.684 89.1092 341.345 88.3228Z" fill="#10B981"/>
<path d="M387.156 73.0936H361.729V52.9321H396.896C397.568 52.9321 398.13 52.3748 398.13 51.9269V37.703C398.13 37.1405 397.568 36.6925 396.896 36.6925H361.729V16.4217H387.156V0.182129H345.828C345.156 0.182129 344.594 0.73942 344.594 1.18734V88.7707C344.594 89.2186 345.156 89.7811 345.828 89.7811H387.156V73.0936Z" fill="#10B981"/>
<path d="M452.001 73.3175C441.136 73.7655 418.068 72.6457 418.068 44.979C418.068 23.703 432.516 15.5259 452.001 16.5311V36.3592H469.136V1.18734C469.136 0.73942 468.688 0.182129 467.907 0.182129H453.344C431.396 0.182129 400.818 5.21859 400.818 44.979C400.818 83.2863 431.058 89.7811 453.344 89.7811H467.907C468.688 89.7811 469.136 89.2186 469.136 88.7707V73.3175H452.001Z" fill="#10B981"/>
<path d="M533.761 88.3228C528.162 75.8957 522.116 63.5728 516.517 50.9165C525.475 47.6665 532.98 40.4998 532.98 26.8384C532.98 0.406087 507.777 0.182129 502.741 0.182129H473.73C473.173 0.182129 472.61 0.73942 472.61 1.18734V16.4217H502.741C505.428 16.4217 515.954 16.979 515.954 26.8384C515.954 36.6925 506.433 37.1405 502.741 37.1405H472.61V88.7707C472.61 89.2186 473.173 89.7811 473.73 89.7811H488.402C489.074 89.7811 489.636 89.2186 489.636 88.7707V53.604H499.267L515.621 89.1092C515.73 89.4425 516.402 89.7811 516.741 89.7811H532.756C533.652 89.7811 534.1 89.1092 533.761 88.3228Z" fill="#10B981"/>
<path d="M603.088 0.182129H588.531C587.744 0.182129 587.296 0.73942 587.296 1.18734V59.8748C587.296 68.9478 579.01 73.3175 570.609 73.3175C562.322 73.3175 554.932 68.6144 553.921 59.7655V16.4217H537.01V59.8748C537.01 78.3592 552.13 89.7811 570.609 89.7811C589.65 89.7811 604.208 78.8071 604.208 59.8748V1.18734C604.208 0.73942 603.65 0.182129 603.088 0.182129Z" fill="#10B981"/>
<path d="M644.081 74.4373H635.122V0.182129H617.987V74.4373H608.805C608.133 74.4373 607.57 74.8853 607.57 75.4425V88.7707C607.57 89.2186 608.133 89.7811 608.805 89.7811H644.081C644.867 89.7811 645.315 89.2186 645.315 88.7707V75.4425C645.315 74.8853 644.867 74.4373 644.081 74.4373Z" fill="#10B981"/>
<path d="M665.697 32.6613V88.7707C665.697 89.2186 666.145 89.7811 666.931 89.7811H681.379C682.16 89.7811 682.723 89.2186 682.723 88.7707V32.6613H665.697ZM648.452 15.5259H699.858C700.64 15.5259 701.088 15.078 701.088 14.5155V1.18734C701.088 0.73942 700.64 0.182129 699.858 0.182129H648.452C647.78 0.182129 647.218 0.73942 647.218 1.18734V14.5155C647.218 15.078 647.78 15.5259 648.452 15.5259Z" fill="#10B981"/>
<path d="M746.341 73.0936H720.914V52.9321H756.08C756.752 52.9321 757.315 52.3748 757.315 51.9269V37.703C757.315 37.1405 756.752 36.6925 756.08 36.6925H720.914V16.4217H746.341V0.182129H705.013C704.341 0.182129 703.778 0.73942 703.778 1.18734V88.7707C703.778 89.2186 704.341 89.7811 705.013 89.7811H746.341V73.0936Z" fill="#10B981"/>
<path d="M821.153 88.3228C815.554 75.8957 809.507 63.5728 803.908 50.9165C812.867 47.6665 820.372 40.4998 820.372 26.8384C820.372 0.406087 795.169 0.182129 790.132 0.182129H761.122C760.564 0.182129 760.002 0.73942 760.002 1.18734V16.4217H790.132C792.82 16.4217 803.346 16.979 803.346 26.8384C803.346 36.6925 793.825 37.1405 790.132 37.1405H760.002V88.7707C760.002 89.2186 760.564 89.7811 761.122 89.7811H775.794C776.465 89.7811 777.028 89.2186 777.028 88.7707V53.604H786.658L803.012 89.1092C803.122 89.4425 803.794 89.7811 804.132 89.7811H820.148C821.044 89.7811 821.492 89.1092 821.153 88.3228Z" fill="#10B981"/>
<mask id="mask0_105_301" style="mask-type:luminance" maskUnits="userSpaceOnUse" x="0" y="177" width="64" height="65">
<path d="M0 177.849H64V241.849H0V177.849Z" fill="white"/>
</mask>
<g mask="url(#mask0_105_301)">
<mask id="mask1_105_301" style="mask-type:luminance" maskUnits="userSpaceOnUse" x="0" y="155" width="87" height="87">
<path d="M41.0837 155.76L86.9014 201.578L46.8128 241.667L0.995117 195.849L41.0837 155.76Z" fill="white"/>
</mask>
<g mask="url(#mask1_105_301)">
<mask id="mask2_105_301" style="mask-type:luminance" maskUnits="userSpaceOnUse" x="0" y="178" width="64" height="64">
<path d="M63.9899 178.672L46.8128 241.667L0.995117 195.849L63.9899 178.672Z" fill="white"/>
</mask>
<g mask="url(#mask2_105_301)">
<path d="M41.0837 155.76L86.9014 201.578L46.8128 241.667L0.995117 195.849L41.0837 155.76Z" fill="#10B981"/>
</g>
</g>
</g>
<mask id="mask3_105_301" style="mask-type:luminance" maskUnits="userSpaceOnUse" x="0" y="177" width="66" height="67">
<path d="M0 177.849H65.3333V243.182H0V177.849Z" fill="white"/>
</mask>
<g mask="url(#mask3_105_301)">
<mask id="mask4_105_301" style="mask-type:luminance" maskUnits="userSpaceOnUse" x="0" y="155" width="88" height="88">
<path d="M41.0837 155.76L87.0472 201.724L46.7399 242.031L0.776367 196.068L41.0837 155.76Z" fill="white"/>
</mask>
<g mask="url(#mask4_105_301)">
<mask id="mask5_105_301" style="mask-type:luminance" maskUnits="userSpaceOnUse" x="0" y="155" width="88" height="88">
<path d="M41.0833 155.766L87.0417 201.724L46.7396 242.026L0.78125 196.068L41.0833 155.766Z" fill="white"/>
</mask>
<g mask="url(#mask5_105_301)">
<mask id="mask6_105_301" style="mask-type:luminance" maskUnits="userSpaceOnUse" x="0" y="178" width="65" height="65">
<path d="M64.0625 178.745L46.7396 242.026L0.78125 196.068L64.0625 178.745Z" fill="white"/>
</mask>
<g mask="url(#mask6_105_301)">
<path d="M64.0622 178.745L46.7392 242.026L0.780894 196.068L64.0622 178.745Z" stroke="#10B981" stroke-width="14.0622"/>
</g>
</g>
</g>
</g>
<mask id="mask7_105_301" style="mask-type:luminance" maskUnits="userSpaceOnUse" x="42" y="135" width="66" height="65">
<path d="M42.667 135.182H108V199.182H42.667V135.182Z" fill="white"/>
</mask>
<g mask="url(#mask7_105_301)">
<mask id="mask8_105_301" style="mask-type:luminance" maskUnits="userSpaceOnUse" x="43" y="112" width="87" height="87">
<path d="M84.0368 112.807L129.849 158.625L89.7607 198.714L43.9482 152.896L84.0368 112.807Z" fill="white"/>
</mask>
<g mask="url(#mask8_105_301)">
<mask id="mask9_105_301" style="mask-type:luminance" maskUnits="userSpaceOnUse" x="43" y="135" width="64" height="64">
<path d="M106.943 135.719L89.7607 198.714L43.9482 152.896L106.943 135.719Z" fill="white"/>
</mask>
<g mask="url(#mask9_105_301)">
<path d="M84.0368 112.807L129.849 158.625L89.7607 198.713L43.9482 152.896L84.0368 112.807Z" fill="#10B981"/>
</g>
</g>
</g>
<mask id="mask10_105_301" style="mask-type:luminance" maskUnits="userSpaceOnUse" x="42" y="135" width="66" height="65">
<path d="M42.667 135.182H108V199.182H42.667V135.182Z" fill="white"/>
</mask>
<g mask="url(#mask10_105_301)">
<mask id="mask11_105_301" style="mask-type:luminance" maskUnits="userSpaceOnUse" x="43" y="112" width="87" height="88">
<path d="M84.0368 112.807L129.995 158.771L89.693 199.078L43.7295 153.115L84.0368 112.807Z" fill="white"/>
</mask>
<g mask="url(#mask11_105_301)">
<mask id="mask12_105_301" style="mask-type:luminance" maskUnits="userSpaceOnUse" x="43" y="112" width="87" height="88">
<path d="M84.0316 112.812L129.995 158.771L89.693 199.073L43.7295 153.115L84.0316 112.812Z" fill="white"/>
</mask>
<g mask="url(#mask12_105_301)">
<mask id="mask13_105_301" style="mask-type:luminance" maskUnits="userSpaceOnUse" x="43" y="135" width="65" height="65">
<path d="M107.016 135.792L89.693 199.073L43.7295 153.114L107.016 135.792Z" fill="white"/>
</mask>
<g mask="url(#mask13_105_301)">
<path d="M107.016 135.792L89.693 199.073L43.7295 153.115L107.016 135.792Z" stroke="#10B981" stroke-width="14.0622"/>
</g>
</g>
</g>
</g>
<mask id="mask14_105_301" style="mask-type:luminance" maskUnits="userSpaceOnUse" x="86" y="92" width="65" height="65">
<path d="M86.667 92.5159H150.667V156.516H86.667V92.5159Z" fill="white"/>
</mask>
<g mask="url(#mask14_105_301)">
<mask id="mask15_105_301" style="mask-type:luminance" maskUnits="userSpaceOnUse" x="86" y="69" width="87" height="87">
<path d="M126.99 69.8596L172.802 115.672L132.714 155.761L86.9014 109.948L126.99 69.8596Z" fill="white"/>
</mask>
<g mask="url(#mask15_105_301)">
<mask id="mask16_105_301" style="mask-type:luminance" maskUnits="userSpaceOnUse" x="86" y="92" width="64" height="64">
<path d="M149.896 92.7659L132.714 155.761L86.9014 109.948L149.896 92.7659Z" fill="white"/>
</mask>
<g mask="url(#mask16_105_301)">
<path d="M126.99 69.8596L172.802 115.672L132.714 155.761L86.9014 109.948L126.99 69.8596Z" fill="#10B981"/>
</g>
</g>
</g>
<mask id="mask17_105_301" style="mask-type:luminance" maskUnits="userSpaceOnUse" x="86" y="92" width="65" height="65">
<path d="M86.667 92.5159H150.667V156.516H86.667V92.5159Z" fill="white"/>
</mask>
<g mask="url(#mask17_105_301)">
<mask id="mask18_105_301" style="mask-type:luminance" maskUnits="userSpaceOnUse" x="86" y="69" width="87" height="88">
<path d="M126.99 69.8596L172.948 115.818L132.646 156.125L86.6826 110.162L126.99 69.8596Z" fill="white"/>
</mask>
<g mask="url(#mask18_105_301)">
<mask id="mask19_105_301" style="mask-type:luminance" maskUnits="userSpaceOnUse" x="86" y="69" width="87" height="88">
<path d="M126.985 69.8596L172.948 115.823L132.646 156.125L86.6826 110.162L126.985 69.8596Z" fill="white"/>
</mask>
<g mask="url(#mask19_105_301)">
<mask id="mask20_105_301" style="mask-type:luminance" maskUnits="userSpaceOnUse" x="86" y="92" width="64" height="65">
<path d="M149.969 92.8389L132.646 156.125L86.6826 110.162L149.969 92.8389Z" fill="white"/>
</mask>
<g mask="url(#mask20_105_301)">
<path d="M149.969 92.839L132.646 156.125L86.6826 110.162L149.969 92.839Z" stroke="#10B981" stroke-width="14.0622"/>
</g>
</g>
</g>
</g>
<mask id="mask21_105_301" style="mask-type:luminance" maskUnits="userSpaceOnUse" x="129" y="48" width="65" height="66">
<path d="M129.333 48.5159H193.333V113.849H129.333V48.5159Z" fill="white"/>
</mask>
<g mask="url(#mask21_105_301)">
<mask id="mask22_105_301" style="mask-type:luminance" maskUnits="userSpaceOnUse" x="129" y="26" width="87" height="87">
<path d="M169.937 26.9065L215.755 72.719L175.666 112.808L129.849 66.995L169.937 26.9065Z" fill="white"/>
</mask>
<g mask="url(#mask22_105_301)">
<mask id="mask23_105_301" style="mask-type:luminance" maskUnits="userSpaceOnUse" x="129" y="49" width="64" height="64">
<path d="M192.849 49.8127L175.666 112.808L129.849 66.995L192.849 49.8127Z" fill="white"/>
</mask>
<g mask="url(#mask23_105_301)">
<path d="M169.937 26.9065L215.755 72.719L175.666 112.808L129.849 66.995L169.937 26.9065Z" fill="#10B981"/>
</g>
</g>
</g>
<mask id="mask24_105_301" style="mask-type:luminance" maskUnits="userSpaceOnUse" x="129" y="49" width="65" height="65">
<path d="M129.333 49.8491H193.333V113.849H129.333V49.8491Z" fill="white"/>
</mask>
<g mask="url(#mask24_105_301)">
<mask id="mask25_105_301" style="mask-type:luminance" maskUnits="userSpaceOnUse" x="129" y="26" width="87" height="88">
<path d="M169.937 26.9065L215.9 72.87L175.593 113.172L129.635 67.2086L169.937 26.9065Z" fill="white"/>
</mask>
<g mask="url(#mask25_105_301)">
<mask id="mask26_105_301" style="mask-type:luminance" maskUnits="userSpaceOnUse" x="129" y="26" width="87" height="88">
<path d="M169.937 26.9065L215.9 72.87L175.598 113.172L129.635 67.2086L169.937 26.9065Z" fill="white"/>
</mask>
<g mask="url(#mask26_105_301)">
<mask id="mask27_105_301" style="mask-type:luminance" maskUnits="userSpaceOnUse" x="129" y="49" width="64" height="65">
<path d="M192.916 49.8909L175.598 113.172L129.635 67.2086L192.916 49.8909Z" fill="white"/>
</mask>
<g mask="url(#mask27_105_301)">
<path d="M192.916 49.891L175.599 113.172L129.635 67.2087L192.916 49.891Z" stroke="#10B981" stroke-width="14.0622"/>
</g>
</g>
</g>
</g>
<mask id="mask28_105_301" style="mask-type:luminance" maskUnits="userSpaceOnUse" x="172" y="5" width="64" height="67">
<path d="M172 5.84912H236V71.1825H172V5.84912Z" fill="white"/>
</mask>
<g mask="url(#mask28_105_301)">
<mask id="mask29_105_301" style="mask-type:luminance" maskUnits="userSpaceOnUse" x="172" y="-17" width="87" height="87">
<path d="M212.89 -16.0466L258.708 29.7711L218.619 69.8596L172.802 24.0419L212.89 -16.0466Z" fill="white"/>
</mask>
<g mask="url(#mask29_105_301)">
<mask id="mask30_105_301" style="mask-type:luminance" maskUnits="userSpaceOnUse" x="172" y="6" width="64" height="64">
<path d="M235.797 6.85962L218.619 69.8596L172.802 24.0419L235.797 6.85962Z" fill="white"/>
</mask>
<g mask="url(#mask30_105_301)">
<path d="M212.89 -16.0466L258.708 29.7711L218.619 69.8596L172.802 24.0419L212.89 -16.0466Z" fill="#10B981"/>
</g>
</g>
</g>
<mask id="mask31_105_301" style="mask-type:luminance" maskUnits="userSpaceOnUse" x="172" y="5" width="64" height="67">
<path d="M172 5.84912H236V71.1825H172V5.84912Z" fill="white"/>
</mask>
<g mask="url(#mask31_105_301)">
<mask id="mask32_105_301" style="mask-type:luminance" maskUnits="userSpaceOnUse" x="172" y="-17" width="87" height="88">
<path d="M212.89 -16.0466L258.854 29.9169L218.547 70.219L172.583 24.2607L212.89 -16.0466Z" fill="white"/>
</mask>
<g mask="url(#mask32_105_301)">
<mask id="mask33_105_301" style="mask-type:luminance" maskUnits="userSpaceOnUse" x="172" y="-17" width="87" height="88">
<path d="M212.89 -16.0466L258.848 29.9169L218.546 70.219L172.588 24.2555L212.89 -16.0466Z" fill="white"/>
</mask>
<g mask="url(#mask33_105_301)">
<mask id="mask34_105_301" style="mask-type:luminance" maskUnits="userSpaceOnUse" x="172" y="6" width="64" height="65">
<path d="M235.869 6.93774L218.546 70.219L172.588 24.2555L235.869 6.93774Z" fill="white"/>
</mask>
<g mask="url(#mask34_105_301)">
<path d="M235.869 6.93784L218.546 70.2191L172.587 24.2556L235.869 6.93784Z" stroke="#10B981" stroke-width="14.0622"/>
</g>
</g>
</g>
</g>
</svg>
